<?xml version="1.0" encoding="UTF-8"?>
<svg width="16px" height="15px" viewBox="0 0 16 15" version="1.1" xmlns="http://www.w3.org/2000/svg" xmlns:xlink="http://www.w3.org/1999/xlink">
    <!-- Generator: Sketch 49.3 (51167) - http://www.bohemiancoding.com/sketch -->
    <title>Shape Copy 3</title>
    <desc>Created with Sketch.</desc>
    <defs></defs>
    <g id="ready" stroke="none" stroke-width="1" fill="none" fill-rule="evenodd">
        <g id="topperevod" transform="translate(-276.000000, -1421.000000)" fill="#FFC856" fill-rule="nonzero">
            <g id="Group-16" transform="translate(42.000000, 1192.000000)">
                <g id="Group-15" transform="translate(150.000000, 172.000000)">
                    <g id="Group-13">
                        <g id="star" transform="translate(0.000000, 57.000000)">
                            <path d="M92.1610254,0.2448 L94.1434254,4.9368 L99.2186254,5.3728 C99.5706254,5.4032 99.7138254,5.8424 99.4466254,6.0736 L95.5970254,9.4088 L96.7506254,14.3704 C96.8306254,14.7152 96.4570254,14.9864 96.1546254,14.8032 L91.7930254,12.1728 L87.4314254,14.8032 C87.1282254,14.9856 86.7554254,14.7144 86.8354254,14.3704 L87.9890254,9.4088 L84.1386254,6.0728 C83.8714254,5.8416 84.0138254,5.4024 84.3666254,5.372 L89.4418254,4.936 L91.4242254,0.2448 C91.5618254,-0.0816 92.0234254,-0.0816 92.1610254,0.2448 Z" id="Shape-Copy-3"></path>
                        </g>
                    </g>
                </g>
            </g>
        </g>
    </g>
</svg>