<?xml version="1.0" encoding="UTF-8"?>
<svg width="554px" height="650px" viewBox="0 0 554 650" version="1.1" xmlns="http://www.w3.org/2000/svg" xmlns:xlink="http://www.w3.org/1999/xlink">
    <!-- Generator: Sketch 49.3 (51167) - http://www.bohemiancoding.com/sketch -->
    <title>Group 28</title>
    <desc>Created with Sketch.</desc>
    <defs></defs>
    <g id="ready" stroke="none" stroke-width="1" fill="none" fill-rule="evenodd">
        <g id="topperevod" transform="translate(0.000000, -1985.000000)">
            <g id="Group-28" transform="translate(-386.000000, 1980.000000)">
                <path d="M292.048008,0.443905631 C362.523911,7.4763114 372.884794,57.556567 438.070738,69.5396629 C509.407502,82.6540302 531.130207,28.9550296 652.012262,12.2042756 C684.949069,7.64170194 796.140082,-7.76608079 830.296864,35.7272209 C864.850967,79.7233098 783.087102,136.251591 815.015327,209.204256 C837.647284,260.911954 887.607724,252.803408 920.289838,313.583328 C942.183187,354.304685 951.275702,416.56871 918.591041,460.597877 C884.836671,506.064839 837.117524,490.884193 740.306438,537.04359 C620.132428,594.341489 626.919977,649.555467 560.323037,654.656111 C464.011148,662.028119 424.643361,548.473179 314.122189,544.395751 C237.253509,541.559854 219.004806,622.623271 142.627682,623.78321 C83.7835756,624.676319 34.2917699,582.894258 0,544.395751 C60.9809749,371.410477 -18.5288641,213.122909 42.4495639,40.1376353 C67.3661106,26.7784901 247.000583,-4.05251186 292.048008,0.443905631 Z" id="Fill-1-Copy-2" fill="#FFF0D3"></path>
                <g id="105028-OMRAOQ-915" transform="translate(655.500000, 417.000000) rotate(-360.000000) translate(-655.500000, -417.000000) translate(531.000000, 179.000000)">
                    <path d="M221.442889,309.731653 C202.772676,294.933576 155.858754,293.979258 153.46516,254.36101 C152.987498,242.903924 152.508074,231.925754 152.508074,231.925754 L95.7007462,231.925754 C95.7007462,231.925754 95.2222036,242.903924 94.743661,254.36101 C92.3500665,293.979258 45.4361445,294.933576 26.7659317,309.731653 C9.80807307,323.172068 2.33029371,342.919241 1.10176991,387.920685 C6.12955202,437.393188 48.0262675,476 98.967703,476 L248.996545,476 C249.089081,462.904053 247.292122,418.45534 247.292122,402.332993 C247.292122,346.963228 240.11222,324.52973 221.442889,309.731653" id="Fill-11" fill="#F8D6C2"></path>
                    <path d="M224.743055,312.327015 C230.037326,316.413285 234.417099,321.089496 237.982301,326.904872 C234.106616,319.447018 229.104984,313.738194 222.805212,308.877464 C207.498756,297.063925 173.44198,294.195652 159.756637,272.788863 C171.836925,297.373189 208.651469,299.906208 224.743055,312.327015" id="Fill-12" fill="#F7CBAA"></path>
                    <path d="M3.02295609,392.056492 C4.25453103,346.8744 11.7571476,327.04785 28.7693264,313.554009 C47.4993444,298.698873 94.5635431,297.738998 96.9639207,257.963265 C97.4457644,246.461519 97.9249558,235.439711 97.9249558,235.439711 L153.146018,235.439711 C153.049649,233.242936 152.993065,231.925754 152.993065,231.925754 L96.0037697,231.925754 C96.0037697,231.925754 95.5236941,242.947562 95.0436186,254.450191 C92.6423569,294.225923 45.5781582,295.184034 26.8481402,310.040934 C9.83596146,323.534775 2.33422897,343.360444 1.10176991,388.54077 C2.52608235,402.577188 6.90688194,415.74019 13.6093727,427.406032 C7.99257758,416.633016 4.30669393,404.700737 3.02295609,392.056492" id="Fill-13" fill="#F7CBAA"></path>
                    <path d="M91.4469027,265.058005 C91.9692903,262.113671 92.3440959,258.868445 92.5403687,255.271326 C92.3440959,258.870995 91.9700452,262.114521 91.4469027,265.058005 M92.5407462,255.270476 C92.5415011,255.253476 92.542256,255.237327 92.5433883,255.220327 C92.542256,255.236477 92.5415011,255.255176 92.5407462,255.270476 M92.5441432,255.201628 C92.5448981,255.190578 92.5452755,255.180378 92.5460304,255.169328 C92.5452755,255.181228 92.5448981,255.190578 92.5441432,255.201628 M92.5479177,255.136179 C92.5482951,255.130229 92.5482951,255.124279 92.5486726,255.118329 C92.5486726,255.122579 92.5479177,255.131929 92.5479177,255.136179" id="Fill-14" fill="#783759"></path>
                    <path d="M153.145181,263.953596 C152.604123,260.650634 152.238678,257.008089 152.082716,252.962234 C152.238678,257.005358 152.605377,260.650634 153.146018,263.952686 C153.1456,263.953596 153.1456,263.953596 153.145181,263.953596 M152.082298,252.95404 C152.081879,252.941294 152.081461,252.926728 152.081043,252.913982 C152.081461,252.927638 152.081879,252.940384 152.082298,252.95404 M152.080207,252.895774 C152.079789,252.88667 152.079371,252.873014 152.078952,252.862999 C152.079371,252.873924 152.079789,252.884849 152.080207,252.895774 M152.077698,252.836597 C152.077698,252.829314 152.07728,252.817479 152.076862,252.810195 C152.07728,252.8193 152.077698,252.827493 152.077698,252.836597 M152.075607,252.772869 C152.075189,252.768317 152.075189,252.761944 152.074771,252.756481 C152.075189,252.761944 152.075189,252.767406 152.075607,252.772869 M152.049265,251.987186 L152.049265,251.986276 L152.049265,251.987186 M152.047593,251.92892 L152.047593,251.925278 C152.047593,251.926189 152.047593,251.92801 152.047593,251.92892 M152.04592,251.871564 C152.04592,251.868833 152.04592,251.867012 152.04592,251.864281 C152.04592,251.867012 152.04592,251.868833 152.04592,251.871564 M152.044248,251.812388 C152.044248,251.810567 152.044248,251.807836 152.044248,251.805104 C152.044248,251.807836 152.044248,251.810567 152.044248,251.812388" id="Fill-15" fill="#6C2F4E"></path>
                    <path d="M121.905818,272.788863 C113.179082,272.788863 103.693616,271.07914 93.6504425,266.795079 C94.7276086,263.509538 95.4258542,259.882585 95.6686836,255.861012 C95.9221867,249.818455 96.1748004,243.907142 96.3580343,239.640817 C105.399648,243.119677 113.96005,244.5341 121.897812,244.533213 C133.554511,244.532326 143.868087,241.48267 152.373341,237.447796 C152.550349,241.568689 152.777167,246.896497 153.003986,252.329832 C153.004876,252.348455 153.005765,252.367964 153.007544,252.386586 C153.007544,252.389247 153.007544,252.391907 153.007544,252.393681 C153.008433,252.41053 153.009323,252.427378 153.011102,252.444227 C153.011102,252.446888 153.011102,252.448661 153.011102,252.451322 C153.011991,252.469057 153.01377,252.485906 153.01466,252.503642 L153.01466,252.507189 C153.016439,252.526698 153.017328,252.544434 153.018218,252.563057 L153.018218,252.563943 C153.035118,252.814904 153.052908,253.064977 153.072476,253.313277 C153.073366,253.318598 153.073366,253.324805 153.074255,253.329239 C153.075145,253.341654 153.076034,253.353183 153.076924,253.365598 C153.077813,253.372692 153.078703,253.38422 153.078703,253.391314 C153.079592,253.399295 153.080482,253.40905 153.081371,253.417031 C153.082261,253.426786 153.08315,253.440088 153.08404,253.448955 C153.08404,253.455163 153.084929,253.46137 153.085819,253.466691 C153.086708,253.479106 153.087598,253.493295 153.088487,253.50571 C153.088487,253.507483 153.089377,253.51103 153.089377,253.513691 C153.421154,257.454566 154.198564,261.002595 155.349558,264.219854 C146.318618,268.967704 134.956339,272.78975 121.905818,272.788863" id="Fill-16" fill="#EDC8B1"></path>
                    <path d="M122.98623,299.513279 C86.146319,299.513279 75.9938093,279.718676 75.5670854,280.544884 C38.3250861,294.00405 6.31991308,312.827837 0,333.2044 L0,377.574503 C0,387.403468 1.44382255,396.892956 4.11942545,405.848098 C17.1692585,412.363414 35.0538294,410.38122 39.0316001,410.38122 C39.2585997,427.738642 39.2691578,443.998274 39.2190067,456.268829 C55.643918,468.655776 72.4190067,476.133973 98.2098479,475.998182 L206.910945,475.998182 C206.811523,467.996221 206.541411,440.875966 206.94174,410.38122 C211.721047,410.38122 236.573096,413.254872 249,400.800029 C249,400.800029 248.043611,362.484964 247.087221,339.493986 C246.14139,316.730501 211.452695,295.378712 170.405374,280.544884 C169.97953,279.718676 159.827021,299.513279 122.98623,299.513279 Z" id="Fill-18" fill="#455FE8"></path>
                    <path d="M177.431554,51.8239504 C167.017236,37.1486972 159.756637,64.4446154 159.756637,64.4446154 C159.756637,64.4446154 164.679257,78.6955706 166.797005,83.9350348 C177.721379,80.9438219 187.84411,66.500084 177.431554,51.8239504 Z" id="Fill-20" fill="#28315A"></path>
                    <path d="M155.549274,60.3495928 C176.74771,77.9449408 176.990084,112.211747 177.562967,137.743911 C178.134087,163.276075 184.248072,210.960447 177.652865,218.858474 C171.056778,226.757382 126.828442,268.317455 71.5082084,223.83937 C63.6702866,215.117953 56.1725692,191.482055 52.2284896,180.316031 C41.8610687,188.818818 23.8275909,182.981913 22.0754501,155.952835 C21.0803963,140.616081 38.8829581,132.317819 46.8874566,150.399796 C42.0523235,109.865876 45.2772145,69.979914 62.0688581,62.3622277 C78.861383,54.7454229 108.432726,26.7298628 155.549274,60.3495928" id="Fill-21" fill="#F8D6C2"></path>
                    <path d="M48.8880838,151.303944 C44.149854,110.381114 47.3095374,70.1115816 63.7625159,62.4206386 C69.3055626,59.829696 76.2725826,54.9014757 84.8362832,50.8027842 C74.9695046,55.1044076 67.0862715,60.8399055 60.9473839,63.7094345 C45.4589767,70.950011 41.7535376,107.065668 45.3259919,145.418028 C46.6377053,146.946248 47.8492483,148.885672 48.8880838,151.303944" id="Fill-22" fill="#F7CBAA"></path>
                    <path d="M25.0282893,155.759161 C24.6007825,149.215131 27.5688754,143.941133 31.7624275,141.364269 C26.0997735,142.955624 21.5529849,149.060753 22.0764996,157.058812 C23.748486,182.6246 39.8606023,189.559065 50.6814159,183.474579 C40.100622,186.903217 26.5544524,179.083769 25.0282893,155.759161" id="Fill-23" fill="#F7CBAA"></path>
                    <path d="M74.8986287,224.731849 C67.0462524,215.992761 59.5338249,192.310486 55.5833547,181.12297 C54.7330412,181.821638 53.8253337,182.412546 52.8849558,182.914244 C56.8804581,194.293431 64.2851616,217.401579 72.020984,226.009943 C104.774391,252.345565 133.643551,248.573996 153.146018,239.450685 C133.734498,247.589148 106.075026,249.799093 74.8986287,224.731849" id="Fill-24" fill="#F7CBAA"></path>
                    <path d="M40.3975195,73.6360667 C25.1366203,62.0854483 8.87177252,82.7860728 18.1292353,106.723 C27.3858174,130.659926 32.4337413,141.001367 34.8141563,141.874317 C49.1151397,147.121776 46.6017456,157.402891 49.4876575,155.486659 C52.3709274,153.568653 65.5032794,142.648794 59.2013004,83.1311719 C75.7136127,84.6836744 81.3013792,79.6225163 81.3013792,79.6225163 C94.5763976,75.5478626 106.428275,75.986999 116.542617,76.4261355 C127.535854,76.9034191 136.477161,77.3798156 142.964958,72.0631599 C159.866521,74.3990108 174.677404,60.8647377 179.843336,47.3304647 C184.939696,33.9780562 180.647376,20.6247606 159.710645,22.5126036 C160.167705,-6.40120259 129.951495,-4.76175997 118.882521,12.2146329 C103.552931,3.22874851 67.9867312,17.6271001 63.5094728,36.3334243 C59.033095,55.0388613 38.0188659,46.7511595 40.3975195,73.6360667" id="Fill-25" fill="#28315A"></path>
                    <path d="M47.3761062,152.408353 C47.8773744,154.406082 48.0378173,155.79918 48.4778761,155.718225 C48.2233005,154.719782 47.8801567,153.583884 47.3761062,152.408353" id="Fill-26" fill="#1E3E86"></path>
                    <path d="M163.204546,26.2103385 C172.52568,25.2843223 178.496597,27.7344068 181.792035,32.0278422 C179.545225,25.7801268 173.686475,21.6005142 163.061947,22.1339381 C163.16194,23.4322899 163.225415,24.7740488 163.204546,26.2103385" id="Fill-27" fill="#1E3E86"></path>
                    <path d="M65.0044248,37.549884 C45.1764271,43.8234907 21.6119774,54.888333 36.8821865,142.706474 C24.8739593,142.689709 24.8739593,177.438961 44.3991229,178.876332 C54.0035479,179.583987 56.4298155,170.241519 55.230161,160.899051 C54.0376954,151.61129 49.2606442,142.322646 44.3892381,142.9103 C35.2206426,68.031142 54.1617046,50.1394509 57.953871,48.8229641 C61.7801848,46.3735221 65.0044248,37.549884 65.0044248,37.549884" id="Fill-30" fill="#000000"></path>
                    <path d="M36.3584071,142.562552 C36.3594358,142.562552 36.3594358,142.562552 36.3614933,142.562552 C36.3594358,142.562552 36.3604645,142.562552 36.3584071,142.562552 M36.3758955,142.560343 C36.377953,142.559239 36.377953,142.559239 36.3800104,142.559239 C36.3789817,142.559239 36.3769242,142.559239 36.3758955,142.560343 M36.3944126,142.55703 C36.3954414,142.55703 36.3964701,142.55703 36.3974988,142.555926 C36.3964701,142.555926 36.3954414,142.55703 36.3944126,142.55703 M36.4129298,142.553717 C36.4139585,142.553717 36.4139585,142.553717 36.4149872,142.553717 C36.4139585,142.553717 36.4139585,142.553717 36.4129298,142.553717 M36.4304182,142.550404 C36.4314469,142.550404 36.4324756,142.550404 36.4345331,142.550404 C36.4335044,142.550404 36.4314469,142.550404 36.4304182,142.550404 M36.4489353,142.548195 C36.4499641,142.548195 36.4509928,142.54709 36.4520215,142.54709 C36.4509928,142.54709 36.4499641,142.54709 36.4489353,142.548195 M36.4664237,142.544882 C36.4674525,142.544882 36.4695099,142.544882 36.4705387,142.543777 C36.4695099,142.544882 36.4674525,142.544882 36.4664237,142.544882 M36.4849409,142.541568 C36.4859696,142.541568 36.4869983,142.541568 36.4869983,142.541568 L36.4849409,142.541568 M36.5024293,142.53936 C36.5044868,142.53936 36.5075729,142.538255 36.5086017,142.538255 C36.5075729,142.538255 36.5044868,142.53936 36.5024293,142.53936 M36.5919288,142.526107 C36.5929575,142.526107 36.5939863,142.526107 36.5939863,142.526107 C36.5929575,142.526107 36.5929575,142.526107 36.5919288,142.526107 M36.606331,142.525002 C36.6094172,142.523898 36.6114747,142.523898 36.6135321,142.523898 C36.6114747,142.523898 36.6094172,142.523898 36.606331,142.525002 M36.6248482,142.521689 C36.6269056,142.521689 36.6299918,142.521689 36.6320493,142.521689 C36.6289631,142.521689 36.6269056,142.521689 36.6248482,142.521689 M36.6423366,142.51948 C36.6454228,142.51948 36.648509,142.51948 36.6515952,142.518376 C36.648509,142.51948 36.6454228,142.51948 36.6423366,142.51948 M36.6608537,142.517271 C36.6639399,142.517271 36.6670261,142.516167 36.6690836,142.516167 C36.6670261,142.517271 36.6639399,142.517271 36.6608537,142.517271 M36.6803996,142.515063 C36.6834858,142.515063 36.6845145,142.513958 36.6876007,142.513958 C36.6855432,142.513958 36.6834858,142.515063 36.6803996,142.515063 M36.6999455,142.512854 C36.7020029,142.512854 36.7040604,142.511749 36.7061178,142.511749 C36.7040604,142.511749 36.7009742,142.512854 36.6999455,142.512854 M36.7184626,142.510645 C36.7205201,142.510645 36.7225775,142.509541 36.7256637,142.509541 C36.7225775,142.509541 36.7205201,142.510645 36.7184626,142.510645 M36.7369797,142.508436 C36.7390372,142.508436 36.7421234,142.508436 36.7441809,142.507332 C36.7410947,142.508436 36.7390372,142.508436 36.7369797,142.508436 M36.7554969,142.506227 C36.7585831,142.506227 36.7606405,142.506227 36.7637267,142.505123 C36.7596118,142.506227 36.7585831,142.506227 36.7554969,142.506227 M36.774014,142.504019 C36.7771002,142.504019 36.7791577,142.504019 36.7812151,142.504019 C36.7791577,142.504019 36.7760715,142.504019 36.774014,142.504019 M36.7925312,142.502914 C36.7956174,142.50181 36.7997323,142.50181 36.8028185,142.50181 C36.7997323,142.50181 36.7956174,142.50181 36.7925312,142.502914 M36.8110483,142.500705 C36.8141345,142.500705 36.8192782,142.499601 36.8223643,142.499601 C36.8182494,142.499601 36.8151632,142.499601 36.8110483,142.500705 M36.8305942,142.498497 C36.8305942,142.498497 36.8316229,142.498497 36.8326516,142.498497 C36.8316229,142.498497 36.8316229,142.498497 36.8305942,142.498497 M36.8614561,142.495183 C36.8624848,142.495183 36.865571,142.495183 36.8676285,142.495183 C36.865571,142.495183 36.8635135,142.495183 36.8614561,142.495183 M36.8779158,142.494079 C36.881002,142.494079 36.8830594,142.494079 36.8861456,142.492974 C36.8840881,142.494079 36.8799732,142.494079 36.8779158,142.494079 M36.8964329,142.492974 C36.8995191,142.49187 36.9026053,142.49187 36.9056915,142.49187 C36.9026053,142.49187 36.8995191,142.49187 36.8964329,142.492974 M36.9159788,142.490766 C36.919065,142.490766 36.9211224,142.490766 36.9242086,142.489661 C36.9211224,142.490766 36.919065,142.490766 36.9159788,142.490766 M36.9344959,142.489661 C36.9375821,142.489661 36.9406683,142.488557 36.9437545,142.488557 C36.9406683,142.488557 36.9375821,142.489661 36.9344959,142.489661 M36.9530131,142.487452 C36.957128,142.487452 36.9591854,142.487452 36.9633004,142.487452 C36.9591854,142.487452 36.957128,142.487452 36.9530131,142.487452 M36.9705015,142.486348 C36.9746164,142.486348 36.9787313,142.486348 36.9818175,142.485244 C36.9787313,142.486348 36.9746164,142.486348 36.9705015,142.486348 M36.9910761,142.485244 C36.9941623,142.485244 36.9972485,142.484139 37.0003346,142.484139 C36.9972485,142.484139 36.995191,142.485244 36.9910761,142.485244 M37.0106219,142.484139 C37.0147369,142.483035 37.0167943,142.483035 37.0198805,142.483035 C37.0167943,142.483035 37.0137081,142.483035 37.0106219,142.484139 M37.0291391,142.483035 C37.033254,142.48193 37.0363402,142.48193 37.0404551,142.48193 C37.0363402,142.48193 37.033254,142.48193 37.0291391,142.483035 M37.0476562,142.480826 C37.0507424,142.480826 37.0558861,142.480826 37.0589723,142.480826 C37.0558861,142.480826 37.0517712,142.480826 37.0476562,142.480826 M37.0682308,142.479722 C37.071317,142.479722 37.0744032,142.479722 37.0774894,142.479722 C37.0744032,142.479722 37.071317,142.479722 37.0682308,142.479722 M37.086748,142.478617 C37.0908629,142.478617 37.0929204,142.478617 37.0970353,142.478617 C37.0929204,142.478617 37.0898342,142.478617 37.086748,142.478617 M37.1062938,142.477513 C37.1114375,142.477513 37.1165811,142.477513 37.1217248,142.477513 C37.1165811,142.477513 37.1114375,142.477513 37.1062938,142.477513 M37.124811,142.477513 C37.1299546,142.476408 37.1340696,142.476408 37.1381845,142.476408 C37.1330408,142.476408 37.1299546,142.476408 37.124811,142.477513 M37.151558,142.475304 C37.1556729,142.475304 37.1597878,142.475304 37.1639027,142.475304 C37.1597878,142.475304 37.1556729,142.475304 37.151558,142.475304 M37.1690464,142.475304 C37.1731613,142.475304 37.178305,142.4742 37.1824199,142.4742 C37.178305,142.4742 37.1731613,142.475304 37.1690464,142.475304 M37.1916784,142.4742 C37.1947646,142.4742 37.1988796,142.4742 37.2019657,142.473095 C37.1988796,142.4742 37.1957934,142.4742 37.1916784,142.4742 M37.2112243,142.473095 C37.2143105,142.473095 37.2184254,142.473095 37.2215116,142.473095 C37.2184254,142.473095 37.2143105,142.473095 37.2112243,142.473095 M37.2297415,142.473095 C37.2328276,142.471991 37.2379713,142.471991 37.2410575,142.471991 C37.2369426,142.471991 37.2338564,142.471991 37.2297415,142.473095 M37.2492873,142.471991 C37.2534022,142.471991 37.2564884,142.471991 37.2595746,142.471991 C37.2564884,142.471991 37.2534022,142.471991 37.2492873,142.471991 M37.2688332,142.471991 C37.2729481,142.470886 37.2760343,142.470886 37.2801492,142.470886 C37.2760343,142.470886 37.2719194,142.470886 37.2688332,142.471991 M37.2883791,142.470886 C37.2914653,142.470886 37.2955802,142.470886 37.2986664,142.470886 C37.2945514,142.470886 37.2914653,142.470886 37.2883791,142.470886 M37.3079249,142.470886 C37.3120399,142.470886 37.3140973,142.470886 37.3182122,142.469782 C37.3151261,142.470886 37.3120399,142.470886 37.3079249,142.470886 M37.3274708,142.469782 C37.3315857,142.469782 37.3336432,142.469782 37.3377581,142.469782 C37.3336432,142.469782 37.3315857,142.469782 37.3274708,142.469782 M37.3470167,142.469782 C37.3501029,142.469782 37.3542178,142.469782 37.357304,142.469782 C37.3531891,142.469782 37.3511316,142.469782 37.3470167,142.469782 M37.3665626,142.469782 C37.3696487,142.469782 37.3737637,142.469782 37.3768499,142.469782 C37.3737637,142.469782 37.3696487,142.469782 37.3665626,142.469782 M37.3861084,142.469782 C37.3902233,142.469782 37.3933095,142.469782 37.3963957,142.469782 C37.3933095,142.469782 37.3891946,142.469782 37.3861084,142.469782 M37.4056543,142.468677 C37.4097692,142.468677 37.4128554,142.468677 37.4169703,142.468677 C37.4128554,142.468677 37.4097692,142.468677 37.4056543,142.468677 M37.4252002,142.468677 C37.4313725,142.468677 37.4375449,142.468677 37.4437173,142.468677 C37.4375449,142.468677 37.4313725,142.468677 37.4252002,142.468677" id="Fill-31" fill="#BF9C83"></path>
                    <path d="M65.0044248,37.5520928 L65.0044248,37.5509884 L65.0044248,37.5520928 M65.0044248,37.5509884 C65.0044248,37.549884 65.0044248,37.549884 65.0044248,37.549884 C65.0044248,37.549884 65.0044248,37.549884 65.0044248,37.5509884" id="Fill-32" fill="#4B648E"></path>
                    <path d="M41.0105001,178.914153 C25.3961623,174.077065 25.5866687,144.985381 35.9108588,143.284953 L35.9117574,143.284953 C35.9162505,143.284066 35.9207436,143.28318 35.9252367,143.282293 C35.9270339,143.282293 35.9261353,143.282293 35.9279325,143.282293 C35.931527,143.281407 35.9369187,143.28052 35.9405131,143.28052 C35.9414117,143.279633 35.943209,143.279633 35.9441076,143.279633 C35.947702,143.278747 35.9530937,143.27786 35.9566882,143.27786 C35.9575868,143.27786 35.9584854,143.276974 35.959384,143.276974 C35.9638771,143.276974 35.9683702,143.276087 35.9728633,143.275201 C35.9737619,143.275201 35.9737619,143.275201 35.9746605,143.275201 C35.9791536,143.274314 35.9836467,143.273427 35.9881397,143.272541 C35.9890383,143.272541 35.9908356,143.272541 35.9917342,143.272541 C35.9962273,143.271654 35.9998217,143.270768 36.0043148,143.270768 C36.0052134,143.269881 36.006112,143.269881 36.0070107,143.269881 C36.0115037,143.268995 36.0150982,143.268995 36.0195913,143.268108 C36.0204899,143.268108 36.0222871,143.268108 36.0231857,143.267222 C36.0276788,143.267222 36.0312733,143.266335 36.0357663,143.265448 L36.0375636,143.265448 C36.0420566,143.264562 36.0465497,143.264562 36.0510428,143.263675 C36.05284,143.263675 36.0555359,143.262789 36.0564345,143.262789 C36.076204,143.260129 36.0950749,143.257469 36.1148445,143.25481 C36.1193376,143.25481 36.1247292,143.253923 36.1292223,143.253037 C36.1301209,143.253037 36.1301209,143.253037 36.1310196,143.253037 C36.1355126,143.253037 36.1382085,143.25215 36.1418029,143.25215 C36.1444988,143.251263 36.146296,143.251263 36.1480932,143.251263 C36.1516877,143.250377 36.1543835,143.250377 36.157978,143.24949 C36.1597752,143.24949 36.1615725,143.24949 36.1642683,143.24949 C36.1669642,143.248604 36.16966,143.248604 36.1732545,143.247717 C36.1759503,143.247717 36.1786462,143.247717 36.181342,143.246831 C36.1840378,143.246831 36.1876323,143.245944 36.1894295,143.245944 C36.1921254,143.245944 36.1948212,143.245944 36.1966185,143.245057 C36.2002129,143.245057 36.2038074,143.244171 36.2065032,143.244171 C36.2091991,143.244171 36.2109963,143.243284 36.2127935,143.243284 C36.216388,143.243284 36.2199825,143.242398 36.2235769,143.242398 C36.2244755,143.242398 36.2271714,143.241511 36.2289686,143.241511 C36.2325631,143.241511 36.2361575,143.240625 36.239752,143.240625 C36.2415492,143.240625 36.2433465,143.239738 36.2460423,143.239738 C36.2487381,143.239738 36.2523326,143.238852 36.2559271,143.238852 C36.2577243,143.238852 36.2595215,143.238852 36.2622174,143.237965 C36.2658118,143.237965 36.2685077,143.237965 36.2721021,143.237078 C36.274798,143.237078 36.2756966,143.237078 36.2792911,143.236192 C36.2810883,143.236192 36.2855814,143.236192 36.2882772,143.235305 C36.2900744,143.235305 36.2927703,143.235305 36.2945675,143.235305 C36.298162,143.234419 36.3008578,143.234419 36.3044523,143.234419 C36.3071481,143.233532 36.3107426,143.233532 36.3134384,143.233532 C36.3161343,143.232646 36.3179315,143.232646 36.3206274,143.232646 C36.3242218,143.231759 36.3269177,143.231759 36.3305121,143.231759 C36.333208,143.231759 36.3350052,143.230872 36.337701,143.230872 C36.3385997,143.230872 36.3385997,143.230872 36.3394983,143.230872 C36.3484844,143.229986 36.3556734,143.229099 36.3646595,143.228213 C36.3664567,143.228213 36.368254,143.228213 36.3700512,143.228213 C36.3736457,143.228213 36.3754429,143.227326 36.3790373,143.227326 C36.3808346,143.227326 36.384429,143.227326 36.3862263,143.22644 C36.3898207,143.22644 36.3925166,143.22644 36.3952124,143.22644 C36.3979083,143.225553 36.4006041,143.225553 36.4033,143.225553 C36.4059958,143.225553 36.4095903,143.224667 36.4122861,143.224667 C36.414982,143.224667 36.4167792,143.224667 36.419475,143.22378 C36.4221709,143.22378 36.4257653,143.22378 36.4284612,143.22378 C36.431157,143.22378 36.4338529,143.222893 36.4365487,143.222893 C36.4392446,143.222893 36.4419404,143.222893 36.4446363,143.222007 C36.4482307,143.222007 36.450028,143.222007 36.4536224,143.222007 C36.4554196,143.222007 36.4581155,143.22112 36.4599127,143.22112 C36.4635072,143.22112 36.4671016,143.22112 36.4697975,143.220234 C36.4724933,143.220234 36.4751892,143.220234 36.477885,143.220234 C36.4814795,143.220234 36.4832767,143.219347 36.4859726,143.219347 C36.4886684,143.219347 36.4922629,143.219347 36.4949587,143.219347 C36.4976546,143.218461 36.5003504,143.218461 36.5030462,143.218461 C36.5057421,143.218461 36.5093366,143.218461 36.5111338,143.218461 C36.5147282,143.217574 36.5174241,143.217574 36.5210186,143.217574 C36.5237144,143.217574 36.524613,143.217574 36.5273089,143.216687 C36.5309033,143.216687 36.5344978,143.216687 36.5371936,143.216687 C36.5398895,143.216687 36.5425853,143.215801 36.5452812,143.215801 C36.547977,143.215801 36.5506729,143.215801 36.5533687,143.215801 C36.5560645,143.215801 36.5587604,143.215801 36.5614562,143.214914 C36.5641521,143.214914 36.5668479,143.214914 36.5704424,143.214914 C36.5731382,143.214914 36.5758341,143.214914 36.5785299,143.214028 C36.583023,143.214028 36.5875161,143.214028 36.5920092,143.214028 C36.5929078,143.214028 36.5938064,143.214028 36.594705,143.214028 C36.5991981,143.213141 36.6018939,143.213141 36.606387,143.213141 C36.6099815,143.213141 36.6144745,143.213141 36.618069,143.212255 C36.6216635,143.212255 36.6252579,143.212255 36.6288524,143.212255 C36.6306496,143.212255 36.6315482,143.212255 36.6333455,143.212255 C36.6369399,143.212255 36.641433,143.211368 36.6450275,143.211368 C36.6486219,143.211368 36.6504191,143.211368 36.653115,143.211368 C36.6567094,143.211368 36.6594053,143.211368 36.6621011,143.210482 C36.664797,143.210482 36.6674928,143.210482 36.6701887,143.210482 C36.6728845,143.210482 36.676479,143.210482 36.6791748,143.210482 C36.6818707,143.210482 36.6836679,143.210482 36.6863637,143.210482 C36.6899582,143.209595 36.6926541,143.209595 36.6962485,143.209595 C36.6989444,143.209595 36.7007416,143.209595 36.7034374,143.209595 C36.7070319,143.209595 36.7097277,143.209595 36.7124236,143.209595 C36.7151194,143.209595 36.7187139,143.209595 36.7205111,143.209595 C36.723207,143.208708 36.7268014,143.208708 36.7303959,143.208708 C36.7330917,143.208708 36.734889,143.208708 36.7375848,143.208708 C36.7402807,143.208708 36.7429765,143.208708 36.746571,143.208708 C36.7492668,143.208708 36.7519627,143.208708 36.7546585,143.208708 C36.758253,143.208708 36.7609488,143.208708 36.7636447,143.207822 C36.7654419,143.207822 36.7690363,143.207822 36.7717322,143.207822 C36.7753267,143.207822 36.7771239,143.207822 36.7807183,143.207822 C36.7834142,143.207822 36.78611,143.207822 36.7888059,143.207822 C36.7924003,143.207822 36.7941976,143.207822 36.797792,143.207822 C36.8004879,143.207822 36.8022851,143.207822 36.8058796,143.207822 C36.8085754,143.207822 36.8121699,143.207822 36.8148657,143.207822 C36.8175616,143.207822 36.8202574,143.207822 36.8229533,143.207822 C36.8256491,143.207822 36.8292436,143.207822 36.8319394,143.207822 C36.8346353,143.207822 36.8373311,143.207822 36.840027,143.206935 C36.8436214,143.206935 36.8463173,143.206935 36.8499117,143.206935 C36.8526076,143.206935 36.8544048,143.206935 36.8571006,143.206935 C36.8624923,143.206935 36.867884,143.206935 36.8732757,143.206935 C36.8759716,143.206935 36.879566,143.206935 36.8822619,143.206935 C33.4603352,123.431257 31.9884034,107.529861 31.9875048,94.6871066 C31.9866062,50.2295103 49.621031,42.4410529 65.0044248,37.549884 C65.0044248,37.549884 65.0044248,37.549884 65.0044248,37.549884 L65.0044248,37.5516571 C64.9837566,37.6057375 64.3610163,39.3043925 63.3509728,41.4046606 C45.0596603,48.4927331 26.9283012,65.0493001 40.7876436,145.133437 C40.7840491,145.133437 40.7822519,145.133437 40.7786574,145.133437 C30.5263565,145.133437 29.0499317,170.597304 41.0105001,178.914153" id="Fill-33" fill="#000000"></path>
                    <g id="Group-18" transform="translate(83.000000, 116.000000)" fill="#212A55">
                        <path d="M3.57410191,53.0539041 C1.86331569,48.4975575 1.25968995,43.7186444 1.6061588,38.8535258 C1.96494655,33.8159965 2.84574738,25.6390237 7.97348647,23.2487835 C17.7854845,18.6767632 24.2790808,39.7829766 25.5001911,46.4458693 C25.6818947,47.4364476 27.1663213,47.0163923 26.9846176,46.0289487 C25.7804459,39.4585309 23.3736422,33.179644 19.6194597,27.6734709 C16.9832166,23.8052001 12.9903555,19.5074697 7.92883048,21.5074347 C3.00281326,23.454109 1.49374891,29.204792 0.671462819,33.9758683 C-0.463415172,40.5525556 -0.266312888,47.1966399 2.08813548,53.472392 C2.43922392,54.4034102 3.92827008,54.000596 3.57410191,53.0539041" id="Fill-60"></path>
                        <path d="M57.6269359,37.7950352 C54.9519356,31.4808809 53.9126933,20.0616991 59.7784315,14.9001409 C66.5948667,8.89847526 75.0175448,24.838535 76.4637848,29.6389254 C76.7542755,30.6030862 78.253332,30.1916691 77.9628413,29.221227 C76.4824259,24.3093458 73.9456806,19.8371469 70.2500791,16.2772892 C67.7366351,13.8543248 64.1171515,10.7655555 60.4479583,12.511723 C56.5395374,14.3740923 54.9270807,19.9612002 54.308817,23.8696633 C53.5088024,28.9511364 54.2963896,33.8944236 56.2863289,38.5880339 C56.6777923,39.5145077 58.0168459,38.7152278 57.6269359,37.7950352" id="Fill-61"></path>
                        <path d="M33.0006257,0.754397506 C33.6417842,18.3112611 38.5947339,35.3491718 47.5052347,50.6192038 C48.0149558,51.4929829 49.3998582,50.706738 48.8885343,49.8298327 C40.1142797,34.7927042 35.2366661,18.0455322 34.603522,0.754397506 C34.5682583,-0.249119802 32.9637591,-0.253809136 33.0006257,0.754397506" id="Fill-62"></path>
                        <path d="M34.0315302,64.7365812 C35.9432369,71.5217302 42.3464178,78.1437895 50.1447142,77.9976242 C58.5759943,77.8391502 59.6601982,68.7415116 58.7194919,62.5564097 C58.5728055,61.5809484 57.0357869,61.9963657 57.1840678,62.9672113 C58.2587052,70.0416138 55.7809803,78.8038415 46.230419,75.7928354 C40.8460709,74.0927017 37.0178743,69.4677225 35.5701431,64.3273182 C35.3006866,63.3733971 33.7620736,63.7780443 34.0315302,64.7365812" id="Fill-63"></path>
                    </g>
                    <path d="M73.0854113,215.359629 C49.856423,215.359629 46.1495052,202.758533 39.6991074,170.020568 C39.5084806,169.052079 40.10698,168.105968 41.0360708,167.907258 C41.9634443,167.707652 42.8727855,168.331531 43.0634123,169.30002 C50.24197,205.734712 53.0369706,214.221073 81.8499494,211.279803 C82.790203,211.178657 83.6342846,211.902786 83.7261633,212.886491 C83.8189007,213.870197 83.1285226,214.746491 82.1848342,214.842266 C78.8540178,215.183296 75.8331846,215.359629 73.0854113,215.359629" id="Fill-41" fill="#000000"></path>
                    <path d="M92.5247202,211.009882 C92.7914678,213.741335 90.7996939,216.172637 88.0739227,216.440027 C85.349918,216.707417 82.9244586,214.710845 82.6568278,211.978508 C82.389197,209.247055 84.3827374,206.816638 87.1076253,206.548363 C89.83163,206.280973 92.2570894,208.27843 92.5247202,211.009882" id="Fill-42" fill="#000000"></path>
                </g>
            </g>
        </g>
    </g>
</svg>