<svg xmlns="http://www.w3.org/2000/svg" width="16" height="15" viewBox="0 0 16 15">
    <g fill="#AAB8FC" fill-rule="nonzero">
        <path d="M15.542 7.07a.467.467 0 0 0-.459.48v4.35c0 1.183-.923 2.143-2.054 2.143H2.97c-1.134 0-2.054-.963-2.054-2.143V7.478A.467.467 0 0 0 .458 7 .467.467 0 0 0 0 7.478V11.9C0 13.61 1.334 15 2.971 15H13.03C14.669 15 16 13.608 16 11.9V7.55a.469.469 0 0 0-.458-.48z"/>
        <path d="M8.167 10.868a.496.496 0 0 0 .335.132.48.48 0 0 0 .335-.132l3.023-2.83a.424.424 0 0 0 0-.63.497.497 0 0 0-.673 0L8.977 9.48V.445C8.977.198 8.766 0 8.502 0c-.265 0-.476.198-.476.445V9.48L5.813 7.41a.497.497 0 0 0-.673 0 .424.424 0 0 0 0 .63l3.027 2.83z"/>
    </g>
</svg>
