<svg xmlns="http://www.w3.org/2000/svg" width="700" height="541" viewBox="0 0 700 541">
    <defs>
        <linearGradient id="a" x1="9.414%" x2="102.927%" y1="92.699%" y2="3.239%">
            <stop offset="0%" stop-color="#F9FAFE"/>
            <stop offset="100%" stop-color="#BFC8FF" stop-opacity=".113"/>
        </linearGradient>
    </defs>
    <g fill="none" fill-rule="evenodd">
        <path fill="url(#a)" d="M589.36.402c-64.102 6.367-73.526 51.706-132.818 62.555-64.886 11.873-84.644-36.743-194.596-51.908C231.988 6.92 130.851-7.03 99.783 32.345c-31.43 39.832 42.941 91.01 13.9 157.057-20.586 46.813-66.028 39.472-95.755 94.499-19.914 36.866-28.184 93.237 1.545 133.098 30.702 41.164 74.106 27.42 162.163 69.21 109.307 51.874 103.134 101.862 163.708 106.48 87.603 6.674 123.411-96.132 223.938-99.824 69.918-2.567 86.517 70.823 155.988 71.873 53.523.809 98.54-37.018 129.73-71.873-55.467-156.61 16.853-299.916-38.611-456.527C793.726 24.244 630.335-3.669 589.361.402z" transform="translate(0 -63)"/>
        <g opacity=".966">
            <path fill="#212A55" d="M393.594 482.546c6.385.556 12.97-2.16 17.085-7.05 4.998-5.938 6.091-14.442 4.367-21.996-1.726-7.553-5.95-14.306-10.659-20.477a130.564 130.564 0 0 0-16.547-17.922c-3.64-3.268-7.61-6.529-9.406-11.068-1.033-2.609-1.263-5.46-1.328-8.26-.358-15.356 3.874-30.418 5.51-45.691 1.635-15.273.2-32.002-9.74-43.755-8.69-10.277-22.65-15.004-36.146-15.318-13.497-.314-26.753 3.277-39.67 7.18-15.82 4.78-35.678 22.602-36.545 40.311-.643 13.135 8.87 25.343 7.598 38.432-1.255 12.916-12.37 22.339-18.925 33.558-4.434 7.59-6.857 16.503-5.845 25.224 1.012 8.721 5.693 17.157 13.14 21.867 6.293 3.98 14.131 5.187 20.095 9.638 5.239 3.907 8.669 10.066 14.454 13.117 4.58 2.413 10.33 2.484 14.968.184"/>
            <path fill="#21314B" d="M357.157 185.583c-2.592-1.685-5.219-3.248-7.772-4.711-11.292-6.473-24.117-10.85-37.19-11.067-4.508-.075-8.606-.95-13.223-.668-20.24 1.24-40.686 6.59-57.082 19.063-10.312 7.843-16.972 18.247-20.318 31.024-4.007 15.3-.16 32.348 9.57 44.764 9.731 12.419 25.01 20.082 40.68 21.012 20.234 1.202 39.54-8.091 59.609-10.97 7.243-1.038 14.965-1.162 21.497 2.161 6.53 3.322 11.359 10.958 9.45 18.078 6.904-2.318 12.565-7.636 16.318-13.92 3.755-6.285 5.74-13.497 6.883-20.742.027-.189.056-.377.086-.566 2.836-18.807-.344-38.845-9.777-55.41-4.218-7.407-11.327-13.23-18.731-18.048"/>
            <text fill="#FFF" font-family="Raleway-SemiBold, Raleway" font-size="30" font-weight="500" transform="translate(93 169)">
                <tspan x="182" y="71">ciao</tspan>
            </text>
            <path fill="#F8D5C0" d="M355.938 380.517c.677 1.881 3.123 2.279 5.125 2.37 6.817.31 14.549.273 19.252-4.652 4.402-4.61 4.077-12.854-.675-17.103-4.752-4.25-13.01-3.68-17.13 1.18 1.253-11.33 2.497-22.873.266-34.053-2.232-11.181-8.532-22.145-18.8-27.165-11.71-5.724-27.297-2.184-37.518 5.138-7.272 5.21-12.861 12.486-17.143 20.327-8.146 14.917-11.81 32.452-9.027 49.207.986 5.938 2.785 11.794 5.852 16.98 7.74 13.083 23.894 20.66 38.942 18.265 15.048-2.393 28.034-14.608 31.302-29.444"/>
            <path fill="#212A55" d="M287.906 362.296c.664-4.4 4.626-14.505 10.664-11.134 5.7 3.182 5.161 9.796 5.054 15.363-.011.634.976.634.988 0 .116-6.024.397-14.66-6.974-16.82-6.239-1.827-9.983 7.69-10.684 12.329-.093.62.857.886.952.262M310.651 335.444a226.618 226.618 0 0 1-1.425 34.782c-.074.627.913.622.987 0a226.618 226.618 0 0 0 1.425-34.782c-.023-.632-1.01-.635-.987 0M321.646 367.635c-.266-4.916 1.184-17.29 8.612-16.15 7.243 1.115 7.673 11.132 7.836 16.736.019.632 1.006.634.987 0-.179-6.126-.912-17.103-9.101-17.78-7.942-.657-9.618 11.678-9.321 17.194.033.63 1.022.633.987 0M301.992 371.522c.75 4.212 4.648 7.287 8.93 7.074.632-.031.636-1.016 0-.984-3.875.192-7.301-2.549-7.979-6.352-.11-.621-1.062-.358-.951.262"/>
            <path fill="#F8D5C0" d="M325.625 405.787c1.267 8.313-2.82 16.591-8.202 23.066-5.38 6.475-12.092 11.744-17.545 18.157-8.937 10.511-14.164 23.749-16.994 37.234-2.83 13.486-3.401 27.328-3.962 41.094-.071 1.721-.07 3.645 1.112 4.9.856.91 2.14 1.25 3.357 1.536 38.608 9.092 80.338 4.38 115.926-13.092.707-.346 1.432-.714 1.943-1.314.867-1.014.94-2.462.966-3.794.185-9.996-.08-20-.79-29.973-.339-4.74-.79-9.528-2.316-14.032-2.105-6.21-6.156-11.58-10.587-16.424a108.206 108.206 0 0 0-19.646-16.881c-6.752-4.52-14.123-8.366-19.617-14.344-5.493-5.98-8.776-14.918-5.435-22.31"/>
            <path fill="#212A55" d="M367.29 357.028c3.877-8.615 4.82-18.3 3.193-27.564-1.018-5.799-1.423-13.283-3.864-18.7-7.033-15.61-31.644-18.482-46.27-15.492-7.099 1.452-12.592 4.456-11.029 12.198 1.376 6.81 5.01 13.01 9.93 17.886 6.418 6.36 14.73 10.523 23.292 13.445.893.305 1.836.627 2.453 1.34.812.94.847 2.295.919 3.535a30.285 30.285 0 0 0 6.213 16.653c1.524 1.977 3.499 3.871 5.98 4.174 4.212.516 7.447-3.617 9.183-7.475"/>
            <path fill="#AAB8FC" d="M309.967 435.259c-1.28 14.327-2.136 28.675-2.674 43.047-.071 1.9 2.89 1.897 2.96 0 .539-14.372 1.396-28.72 2.675-43.047.169-1.892-2.794-1.88-2.961 0M360.108 431.622a1023.594 1023.594 0 0 0-2.221 46.686c-.047 1.901 2.914 1.9 2.961 0a1023.594 1023.594 0 0 1 2.221-46.686c.134-1.896-2.828-1.887-2.961 0"/>
            <path fill="#AAB8FC" d="M384.96 524.911c.412-2.544.743-5.101.954-7.673.804-9.79.3-19.587.04-29.382-.935-2.036-2.44-3.654-4.95-4.457-5.086-1.63-10.173-3.256-15.258-4.884-2.163-.693-4.395-1.393-6.659-1.208-1.873.153-3.64.906-5.351 1.684a136.328 136.328 0 0 0-20.649 11.652c-4.909-4.19-9.94-8.454-15.95-10.82-5.8-2.283-19.705-3.544-25.011.941a5.61 5.61 0 0 0-1.517 2.056c-.631 12.829-1.766 25.672-2.231 38.487.572 4.034 1.33 8.042 2.26 12.005 31.405 5.947 64.461 2.96 94.322-8.4"/>
            <path fill="#212A55" d="M365.077 366.243a75.857 75.857 0 0 0 11.62 10.353c.514.372 1.008-.48.498-.85a74.654 74.654 0 0 1-11.42-10.199c-.428-.47-1.125.229-.698.696"/>
            <path fill="#212A55" d="M364.274 375.797c3.35-3.088 6.832-6.02 10.455-8.783.498-.38.006-1.234-.498-.849a148.763 148.763 0 0 0-10.655 8.937c-.467.43.232 1.125.698.695"/>
            <path fill="#EDC6AE" d="M338.022 419.32c2.496-.726 5.063-1.656 7.263-3.02-2.16-4.022-3.264-8.556-2.579-12.854-4.807 3.7-10.791 5.692-16.918 7.107-.317 4.102-1.768 8.11-3.854 11.81l.024-.003a85.58 85.58 0 0 0 16.064-3.04"/>
            <path fill="#EDC6AE" d="M294.372 392.313c-8.377-12.545-11.818-27.522-8.908-42.352 1.522-7.757 3.462-15.732 6.06-23.211 1.266-3.64 2.735-7.271 4.703-10.58-.175.252-.36.497-.532.749-8.68 12.71-14.259 27.5-16.166 42.757-.353 5.37-.125 10.768.76 16.09.986 5.938 2.783 11.794 5.85 16.979 7.742 13.084 23.895 20.66 38.944 18.267a35.775 35.775 0 0 0 5.65-1.387c-14.429-.151-28.414-5.412-36.36-17.312M375.646 377.252c-3.875 2.845-9.837 4.05-13.391 1.379-5.766-4.33 2.578-14.733 7.724-15.478 8.205-1.188 12.074 9.397 5.667 14.1"/>
            <path fill="#212A55" d="M337.565 359.393c1.526-.538 3.052-1.075 4.579-1.611.594-.21.337-1.16-.264-.95l-4.578 1.612c-.595.21-.338 1.16.263.949M338.526 364.335c1.436-.176 2.873-.35 4.31-.525.623-.076.631-1.06 0-.984l-4.31.525c-.623.075-.63 1.06 0 .984M338.39 367.695c1.264.188 2.48.536 3.641 1.072.574.264 1.075-.583.499-.849a14.137 14.137 0 0 0-3.877-1.172c-.621-.092-.89.855-.263.949M286.163 352.063l3.038 3.125c.443.456 1.141-.24.699-.696a4544.996 4544.996 0 0 1-3.04-3.125c-.443-.456-1.14.24-.697.696M284.278 356.226a16.42 16.42 0 0 1 3.883 1.887c.531.349 1.027-.502.498-.85a17.422 17.422 0 0 0-4.118-1.985c-.604-.2-.863.75-.263.948M283.7 361.432c1.27.079 2.52.02 3.78-.15.626-.085.36-1.034-.262-.95a17.96 17.96 0 0 1-3.517.116c-.635-.04-.632.945 0 .984"/>
            <path fill="#688AEA" d="M267.848 462.908c.13-.018.26-.029.39-.05-.592-.13-1.162-.298-1.723-.484.446.176.89.353 1.333.534"/>
            <path fill="#F8D5C0" d="M458.038 421.19c.838 5.73.975 11.617-.268 17.271-3.094 14.062-14.165 24.935-19.933 38.135-4.324 9.892-5.557 20.908-5.1 31.69.457 10.78 2.542 21.419 4.622 32.01 18.094 1.649 36.346-.171 54.257-3.22 14.029-2.388 28.559-5.831 39.346-15.088.449-.386.902-.794 1.164-1.324.366-.738.315-1.603.256-2.424-.445-6.232-.892-12.481-2.048-18.622-3.268-17.355-13.188-34.357-29.213-41.884-8.447-3.969-19.066-5.9-23.484-14.1-2.113-3.923-2.3-8.555-2.437-13.005-.08-2.5-.157-5-.236-7.5"/>
            <path fill="#EDC6AE" d="M457.015 441.314c2.604.232 5.22.327 7.833.27 3.821-.083 7.81-.556 11.272-2.045-.7-2.875-.828-5.931-.92-8.91l-.105-3.33a44.65 44.65 0 0 1-16.494-.462c.207 3.9.007 7.815-.831 11.624-.213.967-.47 1.915-.755 2.853"/>
            <path fill="#212A55" d="M457.742 429.405c-4.07 2.795-10.082 2.317-13.657-1.084-3.31 4.044-9.246 5.718-14.192 4.003-4.944-1.716-8.556-6.702-8.632-11.919-.048-3.224 1.12-6.368 1.136-9.592.04-8.418-6.61-12.533-11.478-18.215-4.817-5.627-9.376-12.826-12.285-19.66-3.192-7.499-4.512-16.015-2.336-23.868 2.174-7.854 8.22-14.852 16.123-16.933.966-.255 2.007-.465 2.73-1.154.708-.676.97-1.68 1.222-2.625 2.495-9.39 7.063-18.464 14.37-24.89 5.491-4.828 12.289-7.966 19.252-10.219 12.306-3.982 25.462-5.374 38.316-3.916 6.42.728 12.876 2.205 18.436 5.484 7.63 4.498 13.157 12.387 14.768 21.074 1.611 8.687-.722 18.024-6.233 24.943 5.914 3.634 10.133 9.898 11.268 16.731 1.135 6.833-.833 14.117-5.257 19.459-1.782 2.15-4.1 4.52-3.524 7.25.26 1.235 1.093 2.257 1.838 3.278a30.565 30.565 0 0 1 5.692 14.808c.333 3.228.11 6.632-1.465 9.473-3.638 6.558-12.509 7.575-20.024 7.812l-16.656.524"/>
            <path fill="#2133A2" d="M432.14 174.684c17.003-2.34 34.854-.906 50.772 5.76 15.792 6.615 28.564 14.526 36.101 30.591 6.98 14.88 11.287 31.782 3.387 47.245-7.382 14.452-22.483 22.99-38.052 25.35-12.148 1.843-24.388 2.091-36.38 5.023-3.621.886-5.967 2.018-6.535 5.985-.356 2.49.146 5.549 1.627 7.625.42.591 4.782 4.512 5.537 2.49-1.163 3.114-5.145 3.946-8.477 4.056-34.406 1.141-65.047-25.787-74.143-57.723-4.22-14.816-2.794-28.221 5.682-41.404 13.116-20.394 37.136-31.787 60.48-34.998"/>
            <text fill="#FFF" font-family="Raleway-SemiBold, Raleway" font-size="30" font-weight="500" transform="translate(93 173)">
                <tspan x="322.069" y="72.956">hola</tspan>
            </text>
            <path fill="#F8D5C0" d="M422.5 393.175c-3.496-3.419-9.922-2.534-12.971 1.286-3.05 3.82-2.833 9.613-.18 13.718 2.651 4.105 7.33 6.613 12.143 7.507 3.168.59 6.432.555 9.622.173 2.118-.253 5.666-2.08 7.46-.417.832.77 1.284 1.85 1.785 2.866 4.292 8.699 14.06 12.202 23.219 12.747 5.006.297 9.981-.274 14.858-1.38 8.491-1.93 15.284-6.756 20.801-13.486 4.042-4.931 5.407-11.72 5.93-17.91 1.036-12.22-1.486-24.529-5.004-36.178a212.66 212.66 0 0 0-3.375-10.162c-3.479-9.71-7.875-19.527-14.787-27.28-6.62-7.428-19.488-6.773-28.266-5.032-7.769 1.542-15.49 4.182-21.706 9.075-9.02 7.103-14.024 18.44-15.185 29.84-1.163 11.4 1.186 22.901 4.765 33.79"/>
            <path fill="#212A55" d="M450.484 389.3c-1.097-2.86-1.484-5.86-1.262-8.915.23-3.162.795-8.295 4.082-9.796 6.29-2.87 10.452 10.38 11.235 14.562.116.622 1.068.358.951-.262-.772-4.124-2.314-8.066-4.72-11.522-1.69-2.428-4.25-5.126-7.495-3.87-3.158 1.221-4.125 4.831-4.652 7.826-.728 4.129-.601 8.3.908 12.24.225.584 1.18.33.953-.264M484.365 379.592c-1.7-3.956-2.36-11.111 1.367-14.346 4.331-3.76 9.683 6.228 10.602 9.235.185.605 1.137.347.953-.261-.94-3.078-2.553-5.88-4.901-8.11-1.597-1.519-3.897-3.454-6.229-2.36-2.483 1.167-3.508 4.668-3.9 7.117-.509 3.183-.009 6.28 1.256 9.222.249.58 1.1.08.852-.497M468.567 356.099a68.073 68.073 0 0 0 8.933 31.387c.314.55 1.166.055.851-.497a66.976 66.976 0 0 1-8.796-30.89c-.022-.632-1.01-.635-.988 0"/>
            <path fill="#212A55" d="M469.541 386.937c1.184 4.339 5.148 8.573 9.976 8.48 5.22-.101 5.89-5.92 5.308-9.875-.09-.623-1.042-.358-.95.263.665 4.524-.869 10.127-6.782 8.202-3.333-1.087-5.703-4.045-6.6-7.332-.166-.61-1.119-.351-.952.262M416.1 398.454l12.478 11.693c.462.433 1.162-.26.698-.696l-12.479-11.692c-.462-.433-1.162.26-.698.695"/>
            <path fill="#212A55" d="M418.554 407.942c2.444-2.063 4.82-4.2 7.128-6.412.458-.44-.24-1.135-.698-.696a150.961 150.961 0 0 1-7.127 6.412c-.486.41.216 1.102.697.696M420.23 389.434c.764 2.144 1.587 4.378 3.274 5.911 1.687 1.532 4.52 2.068 6.218.546 1.356-1.216 1.547-3.242 1.548-5.061a51.214 51.214 0 0 0-3.664-19.005c9.313-.463 17.826-6.158 23.322-13.667 5.497-7.507 8.297-16.661 9.873-25.821 6.498 5.68 16.834 6.436 24.095 1.763 7.261-4.674 10.823-14.375 8.303-22.616-.645-2.11-1.716-4.197-3.537-5.45-1.727-1.186-3.902-1.48-5.993-1.634-11.602-.862-23.342 1.553-33.975 6.255-4.264 1.886-8.375 4.14-12.125 6.904-6.348 4.682-11.535 10.725-16.662 16.712-3.568 4.165-7.219 8.473-8.941 13.674-3.958 11.952 3.19 24.793 2.293 37.348"/>
            <path fill="#EDC6AE" d="M430.061 406.686c.439 1.22.729 2.628.12 3.775-.815 1.536-2.84 1.918-4.582 1.906-4.04-.028-8.237-1.351-10.925-4.356-2.995-3.348-3.963-12.258 2.564-13.111 5.237-.685 11.322 7.594 12.823 11.786M500.163 362.101a212.293 212.293 0 0 0-3.375-10.162c-2.985-8.332-6.652-16.74-11.999-23.86-.596-.4-1.214-.774-1.871-1.097l-6.629 1.62c12.682 15.007 22.069 33.555 22.634 53.168.557 19.27-8.638 39.383-25.442 48.82 1.66-.238 3.314-.544 4.955-.916 7.552-1.715 13.758-5.726 18.92-11.328a37.772 37.772 0 0 0 3.947-5.781 42.754 42.754 0 0 0 1.976-4.093c1.07-3.314 1.604-6.84 1.889-10.194 1.035-12.22-1.487-24.527-5.005-36.177"/>
            <path fill="#AAB8FC" d="M530.334 499.618c-3.268-17.355-13.188-34.357-29.213-41.884-5.974-2.807-13.028-4.605-18.213-8.315-3.338 3.805-8.165 6.344-13.242 6.595-5.976.294-11.925-2.592-15.66-7.216-4.695 9.487-11.888 18.003-16.169 27.798-4.324 9.892-5.557 20.908-5.1 31.69.457 10.78 2.542 21.419 4.622 32.01 18.094 1.65 36.346-.171 54.256-3.22 14.03-2.388 28.56-5.831 39.347-15.088.449-.386.902-.794 1.163-1.324.367-.738.316-1.603.257-2.424-.445-6.232-.892-12.481-2.048-18.622"/>
            <path fill="#212A55" d="M482.908 449.42c-3.338 3.803-8.165 6.343-13.242 6.594-5.975.295-11.925-2.593-15.66-7.216-2.114 4.272-4.734 8.346-7.367 12.43 6.532 3.176 13.983 3.968 21.254 3.965 5.064-.002 10.228-.385 14.925-2.273 4.146-1.667 7.915-4.662 9.85-8.634-3.49-1.369-6.91-2.827-9.76-4.866"/>
            <path fill="#EDC6AE" d="M173.207 432.118c1.307 8.908 2.334 18.947-3.246 26.025-3.012 3.822-7.53 6.136-12.037 7.992-7.629 3.145-15.674 5.333-22.969 9.185-18.034 9.523-29.953 29.561-29.683 49.902 8.787 3.544 18.289 4.937 27.727 5.824 19.513 1.837 39.342.978 58.859.577 16.056-.332 33.492-3.546 48.584-9.084a54.833 54.833 0 0 0 16.87-9.9c2.484-2.137 4.223-3.266 3.445-6.498-.72-2.988-2.208-5.991-2.97-9.068-3.157-12.742-10.498-24.766-20.345-33.54-6.019-5.362-13.888-5.983-21.803-6.3-5.6-.224-13.18-.501-16.557-5.909-3.687-5.906-3.615-17.07-4.214-23.868"/>
            <path fill="#AAB8FC" d="M257.787 497.073c-3.157-12.742-10.498-24.766-20.345-33.54-6.018-5.361-13.887-5.984-21.803-6.3-4.062-.162-9.157-.363-12.941-2.517-9.31 5.627-21.547 6.026-31.323 1.3-.42.732-.877 1.447-1.413 2.127-3.013 3.821-7.532 6.135-12.038 7.993-7.63 3.143-15.674 5.333-22.97 9.185-18.033 9.522-29.952 29.561-29.682 49.9 8.788 3.544 18.29 4.938 27.727 5.825 19.514 1.837 39.342.978 58.858.577 16.056-.332 33.493-3.545 48.584-9.084a54.84 54.84 0 0 0 16.871-9.9c2.485-2.138 4.223-3.266 3.445-6.498-.72-2.988-2.208-5.992-2.97-9.068"/>
            <path fill="#212A55" d="M160.968 504.174c23.77.227 47.5-3.256 70.49-9.282 7.907-2.072 16.314-4.872 21.419-11.068a68.388 68.388 0 0 0-8.622-13.228c-.573.503-1.228.945-1.861 1.326-15.785 9.467-33.564 12.357-51.656 13.877a250.777 250.777 0 0 1-57.152-1.734c-3.023-.441-6.039-.94-9.044-1.492l-.02-.003c-5.055 4.474-9.293 9.87-12.497 15.82a229.491 229.491 0 0 0 48.943 5.784"/>
            <path fill="#212A55" d="M153.142 479.64c23.77.224 47.5-3.259 70.489-9.283 5.143-1.348 10.496-3.009 15.02-5.704-.401-.376-.8-.754-1.209-1.12-6.018-5.36-13.887-5.984-21.803-6.3-1.457-.058-3.048-.124-4.663-.282-9.106 2.32-18.54 3.513-28.065 4.313a250.78 250.78 0 0 1-17.238.828c-2.375 1.657-5.061 2.935-7.749 4.043-7.63 3.145-15.674 5.333-22.97 9.185a52.545 52.545 0 0 0-4.85 2.911 229.04 229.04 0 0 0 23.038 1.408"/>
            <path fill="#AAB8FC" d="M171.667 453.443c3.968 3.152 9.083 4.837 14.154 4.662 5.071-.174 10.057-2.206 13.797-5.624l5.573 2.97c.25.133.51.273.669.506.38.558.022 1.31-.363 1.865a20.863 20.863 0 0 1-9.897 7.653c-2.357.863-4.85 1.293-7.338 1.638-3.887.54-7.865.883-11.718.139-3.853-.744-7.61-2.696-9.796-5.945 1.4-2.283 2.799-4.565 4.197-6.85"/>
            <path fill="#EDC6AE" d="M195.984 441.007c-.39-2.842-.597-5.772-.767-8.474-1.033.562-2.271.784-3.456.958a105.693 105.693 0 0 1-18.213 1.083c.666 5.018 1.063 10.263.138 15.054 8.067-.591 15.945-3.628 22.298-8.62"/>
            <path fill="#212A55" d="M154.13 410.234c-4.24 1.851-9.168 2.086-13.567.65-4.4-1.436-8.231-4.531-10.552-8.525-2.376-4.086-3.074-8.82-3.143-13.477-.054-3.72 2.035-10.02.613-13.393-.403-.957-1.186-1.695-1.963-2.383-2.903-2.576-6.08-4.954-8.229-8.184-3.726-5.602-3.08-14.185 1.316-19.202 2.635-3.006 6.482-3.375 9.101-5.886 2.821-2.706 3.312-7.821 3.999-11.426 1.777-9.318 5.49-18.782 12.95-24.67 7.12-5.62 17.232-7.177 25.753-4.045 4.134 1.52 8.121 4.092 12.519 3.82 4.058-.25 7.51-2.875 11.237-4.496 10.516-4.574 22.749-.954 33.116 3.947 9.588 4.533 19.299 10.88 22.904 20.83 1.73 4.768 1.88 9.97 1.456 15.024-.348 4.156-1.264 8.639-4.44 11.354-4.573 3.907-1.888 5.692.244 10.255 2.392 5.12 5.525 10.145 4.803 16.052-.932 7.64-7.954 13.127-15.093 16.059-7.047 2.893-15.866 3.904-21.707-.976"/>
            <path fill="#F8D5C0" d="M140.27 368.323c-2.668-3.769-8.49-4.56-12.408-2.107-3.918 2.454-5.77 7.52-4.974 12.064.795 4.543 3.935 8.475 7.879 10.887 3.944 2.41 8.622 3.42 13.247 3.589.299 9.705 3.589 19.298 9.312 27.156 4.64 6.37 11.112 11.668 18.618 14.282 1.408.491 2.848.892 4.307 1.199 16.483 3.466 31.768-2.297 39.422-17.547 3.876-7.724 5.205-19.276 5.22-27.814.021-10.35-2.213-20.713-4.776-30.689-2.249-8.753-5.265-20.513-14.433-24.614-13.005-5.815-26.819-6.85-40.293-1.773-12.862 4.847-22.106 19.259-22.131 32.817"/>
            <path fill="#212A55" d="M201.205 349.619c8.428-2.898 15.045-8.126 13.285-17.578-3.253-17.483-31.233-18.202-44.545-15.673-8.04 1.526-15.806 5.206-21.367 11.189-5.392 5.8-10.076 14.15-11.978 21.85-1.448 5.861.433 10.703 2.505 16.14 1.478 3.877 2.618 7.85 4.014 11.75 1.312 3.67 2.888 6.57 5.89 2.492 4.412-5.995 4.944-13.99 5.527-21.112.171-2.084.53-4.329 2.032-5.788 1.542-1.5 3.942-1.775 6.06-1.381 2.577.479 4.842 1.887 7.44 2.062 2.668.18 5.78-.309 8.5-.403 5.715-.199 14.933-.9 22.637-3.548"/>
            <path fill="#212A55" d="M159.053 366.104c.4 3.911.983 7.936 3.066 11.356 1.524 2.5 4.228 5.29 7.377 5.376 7.51.204 7.155-12.545 6.327-17.168-.112-.622-1.063-.358-.952.262.758 4.23.706 19.115-7.395 15.363-5.616-2.601-6.88-9.745-7.435-15.19-.064-.623-1.052-.63-.988 0M193.599 362.403c-.269 3.6.555 7.187 2.546 10.226 1.573 2.4 4.182 5.15 7.325 4.97 8.389-.476 5.895-13.582 4.38-18.45-.188-.603-1.14-.346-.952.261.926 2.974 1.495 6.04 1.505 9.161.011 3.465-1.513 8.97-6.204 7.926-5.632-1.254-7.978-9.2-7.613-14.094.047-.631-.94-.628-.987 0M183.45 355.927a64.265 64.265 0 0 0 7.49 34.243c.299.56 1.15.063.853-.497a63.287 63.287 0 0 1-7.356-33.746c.038-.633-.949-.63-.987 0"/>
            <path fill="#212A55" d="M179.798 383.51c.822 4.557 4.159 12.397 9.955 11.949 5.941-.46 6.227-7.747 5.73-12.11-.072-.622-1.059-.629-.988 0 .45 3.952.37 11.833-5.715 11.064-4.753-.601-7.31-7.17-8.03-11.165-.112-.621-1.063-.359-.952.261"/>
            <path fill="#2133A2" d="M129.241 295.152c-5.272 4.896-7.148 11.824-5.225 18.64.359 1.271 1.64 7.058 2.86 7.574-9.94-4.206-15.48-12.338-20.509-21.417-12.79-23.096-19.104-52.344-6.544-75.565 8.017-14.824 22.9-25.228 39.043-30.194 16.144-4.964 33.487-4.901 50.205-2.461 12.716 1.856 25.525 5.188 36.125 12.431 14.305 9.773 23.49 26.606 23.95 43.887.134 5.095-.504 10.387-3.137 14.757-2.886 4.792-7.853 7.966-12.947 10.302-13.246 6.074-27.952 7.449-42.325 8.37-10.744.688-21.548 1.124-32.162 3.047-6.695 1.213-13.075 2.04-19.446 4.675-3.565 1.475-7.032 3.311-9.861 5.93a.606.606 0 0 0-.027.024"/>
            <text fill="#FFF" font-family="Raleway-SemiBold, Raleway" font-size="30" font-weight="500" transform="translate(93 169)">
                <tspan x="39" y="81">hello</tspan>
            </text>
            <g>
                <path fill="#212A55" d="M258.968 496.994c-.089-.355-.193-.71-.289-1.064-12.201 10.592-29.087 14.446-45.26 16.724a357.736 357.736 0 0 1-95.897.51c-3.48-.452-7.154-1.065-10.192-2.664-1.3 4.774-1.967 9.711-1.9 14.668 8.846 3.547 18.412 4.941 27.913 5.83 19.644 1.838 39.605.979 59.253.577 16.163-.332 33.717-3.548 48.91-9.092a55.28 55.28 0 0 0 16.984-9.91c2.5-2.138 4.25-3.268 3.468-6.502-.725-2.99-2.223-5.997-2.99-9.077M132.787 371.508l7.326 15.958c.265.577 1.12.076.858-.497l-7.326-15.957c-.264-.576-1.122-.077-.858.496"/>
                <path fill="#212A55" d="M130.663 382.598a154.092 154.092 0 0 0 9.227-7.002c.492-.405-.214-1.098-.703-.697a150.94 150.94 0 0 1-9.025 6.849c-.519.363-.023 1.217.501.85"/>
                <path fill="#EDC6AE" d="M135.99 387.112c-4.075-1.144-8.104-6.204-8.043-10.481.045-3.04.914-6.345 4.322-6.521 2.65-.138 5.234 1.148 7.12 3a12.995 12.995 0 0 1 3.442 5.918c.669 2.532.38 5.593-1.68 7.233-1.414 1.123-3.419 1.34-5.162.85M213.145 423.223c3.734-6.075 6.179-12.669 7.574-19.54.775-4.796 1.1-9.666 1.108-13.823.02-10.359-2.228-20.731-4.809-30.716-1.605-6.209-3.609-13.919-7.92-19.35l-2.33 1.124c3.996 8.494 6.897 17.532 8.302 26.807 1.233 8.137-.257 15.144-.458 23.112-.247 9.751-2.789 19.575-8.208 27.79-2.713 4.11-6.114 7.79-10.068 10.76-3.006 2.257-8.18 3.682-10.34 6.848 10.858.012 20.591-4.3 27.149-13.012"/>
            </g>
        </g>
    </g>
</svg>
