<svg xmlns="http://www.w3.org/2000/svg" width="20" height="22" viewBox="0 0 20 22">
    <path fill="#455FE8" fill-rule="nonzero" d="M19.552 17.4l-3.09-3.405c-.614-.675-1.633-.655-2.27.047l-1.556 1.716-.307-.189c-.983-.6-2.327-1.423-3.743-2.984-1.42-1.565-2.166-3.05-2.712-4.134-.058-.115-.113-.226-.168-.33l1.045-1.15.513-.567c.638-.703.655-1.826.042-2.504L4.216.494c-.613-.676-1.632-.656-2.27.047l-.87.965.024.027c-.292.41-.536.884-.718 1.394-.167.487-.271.95-.319 1.415C-.345 8.07 1.2 11.477 5.393 16.1c5.797 6.39 10.467 5.907 10.669 5.883a4.915 4.915 0 0 0 2.548-1.144l.019.019.881-.952c.637-.703.655-1.826.042-2.505z"/>
</svg>
