<svg xmlns="http://www.w3.org/2000/svg" width="40" height="40" viewBox="0 0 40 40">
    <g fill="none" fill-rule="nonzero">
        <path fill="#00AFF0" d="M38.762 24.193c.287-1.3.44-2.645.44-4.028 0-10.364-8.52-18.768-19.034-18.768-1.108 0-2.196.095-3.253.274A11.086 11.086 0 0 0 11.044 0C4.945 0 .004 4.874.004 10.887c0 2.008.555 3.888 1.517 5.506a18.53 18.53 0 0 0-.386 3.772c0 10.369 8.52 18.46 19.032 18.46 1.191 0 2.356-.109 3.485-.315 1.555.823 3.33 1.603 5.219 1.603 6.097 0 11.038-4.872 11.038-10.886 0-1.735-.413-3.377-1.147-4.834z"/>
        <path fill="#FFF" d="M28.85 27.826c-.735 1.044-1.81 1.865-3.226 2.454-1.415.595-3.091.89-5.03.89-2.326 0-4.244-.405-5.757-1.214a7.449 7.449 0 0 1-2.612-2.33c-.669-.97-1.004-1.915-1.004-2.834 0-.531.2-.988.602-1.366.402-.383.914-.57 1.534-.57.504 0 .931.145 1.278.443.35.296.647.733.892 1.316.3.692.623 1.27.974 1.732.347.463.838.847 1.469 1.147.633.298 1.465.45 2.493.45 1.414 0 2.564-.301 3.45-.909.882-.605 1.326-1.364 1.326-2.27 0-.72-.24-1.307-.716-1.752-.478-.449-1.094-.792-1.85-1.027-.754-.238-1.764-.49-3.03-.756-1.693-.363-3.111-.792-4.25-1.278-1.142-.49-2.05-1.155-2.718-1.997-.671-.845-1.006-1.893-1.006-3.144 0-1.194.353-2.253 1.062-3.18.707-.927 1.728-1.64 3.07-2.138 1.34-.5 2.916-.747 4.725-.747 1.447 0 2.699.166 3.755.493 1.056.332 1.93.771 2.626 1.319.698.547 1.208 1.12 1.528 1.723.322.599.483 1.19.483 1.758 0 .523-.2.997-.601 1.415-.402.419-.903.63-1.503.63-.548 0-.963-.128-1.247-.378-.285-.252-.593-.664-.923-1.236-.43-.818-.943-1.457-1.544-1.915-.601-.458-1.564-.688-2.893-.688-1.231 0-2.226.247-2.982.747-.756.496-1.135 1.098-1.135 1.797 0 .432.131.808.387 1.124.255.318.61.586 1.062.812.448.227.904.404 1.364.535.46.128 1.223.314 2.285.56 1.327.286 2.53.603 3.608.947 1.076.346 1.994.766 2.75 1.256a5.339 5.339 0 0 1 1.768 1.876c.423.753.636 1.677.636 2.772 0 1.31-.368 2.488-1.1 3.533z"/>
    </g>
</svg>
