<?xml version="1.0" encoding="UTF-8"?>
<svg width="128px" height="15px" viewBox="0 0 128 15" version="1.1" xmlns="http://www.w3.org/2000/svg" xmlns:xlink="http://www.w3.org/1999/xlink">
    <!-- Generator: Sketch 49.3 (51167) - http://www.bohemiancoding.com/sketch -->
    <title>star</title>
    <desc>Created with Sketch.</desc>
    <defs></defs>
    <g id="ready" stroke="none" stroke-width="1" fill="none" fill-rule="evenodd">
        <g id="topperevod" transform="translate(-192.000000, -1421.000000)" fill-rule="nonzero">
            <g id="Group-16" transform="translate(42.000000, 1192.000000)">
                <g id="Group-15" transform="translate(150.000000, 172.000000)">
                    <g id="Group-13">
                        <g id="star" transform="translate(0.000000, 57.000000)">
                            <path d="M8.16102537,0.2448 L10.1434254,4.9368 L15.2186254,5.3728 C15.5706254,5.4032 15.7138254,5.8424 15.4466254,6.0736 L11.5970254,9.4088 L12.7506254,14.3704 C12.8306254,14.7152 12.4570254,14.9864 12.1546254,14.8032 L7.79302537,12.1728 L3.43142537,14.8032 C3.12822537,14.9856 2.75542537,14.7144 2.83542537,14.3704 L3.98902537,9.4088 L0.138625367,6.0728 C-0.128574633,5.8416 0.0138253674,5.4024 0.366625367,5.372 L5.44182537,4.936 L7.42422537,0.2448 C7.56182537,-0.0816 8.02342537,-0.0816 8.16102537,0.2448 Z" id="Shape" fill="#FFC856"></path>
                            <path d="M36.1610254,0.2448 L38.1434254,4.9368 L43.2186254,5.3728 C43.5706254,5.4032 43.7138254,5.8424 43.4466254,6.0736 L39.5970254,9.4088 L40.7506254,14.3704 C40.8306254,14.7152 40.4570254,14.9864 40.1546254,14.8032 L35.7930254,12.1728 L31.4314254,14.8032 C31.1282254,14.9856 30.7554254,14.7144 30.8354254,14.3704 L31.9890254,9.4088 L28.1386254,6.0728 C27.8714254,5.8416 28.0138254,5.4024 28.3666254,5.372 L33.4418254,4.936 L35.4242254,0.2448 C35.5618254,-0.0816 36.0234254,-0.0816 36.1610254,0.2448 Z" id="Shape-Copy" fill="#FFC856"></path>
                            <path d="M64.1610254,0.2448 L66.1434254,4.9368 L71.2186254,5.3728 C71.5706254,5.4032 71.7138254,5.8424 71.4466254,6.0736 L67.5970254,9.4088 L68.7506254,14.3704 C68.8306254,14.7152 68.4570254,14.9864 68.1546254,14.8032 L63.7930254,12.1728 L59.4314254,14.8032 C59.1282254,14.9856 58.7554254,14.7144 58.8354254,14.3704 L59.9890254,9.4088 L56.1386254,6.0728 C55.8714254,5.8416 56.0138254,5.4024 56.3666254,5.372 L61.4418254,4.936 L63.4242254,0.2448 C63.5618254,-0.0816 64.0234254,-0.0816 64.1610254,0.2448 Z" id="Shape-Copy-2" fill="#FFC856"></path>
                            <path d="M92.1610254,0.2448 L94.1434254,4.9368 L99.2186254,5.3728 C99.5706254,5.4032 99.7138254,5.8424 99.4466254,6.0736 L95.5970254,9.4088 L96.7506254,14.3704 C96.8306254,14.7152 96.4570254,14.9864 96.1546254,14.8032 L91.7930254,12.1728 L87.4314254,14.8032 C87.1282254,14.9856 86.7554254,14.7144 86.8354254,14.3704 L87.9890254,9.4088 L84.1386254,6.0728 C83.8714254,5.8416 84.0138254,5.4024 84.3666254,5.372 L89.4418254,4.936 L91.4242254,0.2448 C91.5618254,-0.0816 92.0234254,-0.0816 92.1610254,0.2448 Z" id="Shape-Copy-3" fill="#FFC856"></path>
                            <path d="M120.161025,0.2448 L122.143425,4.9368 L127.218625,5.3728 C127.570625,5.4032 127.713825,5.8424 127.446625,6.0736 L123.597025,9.4088 L124.750625,14.3704 C124.830625,14.7152 124.457025,14.9864 124.154625,14.8032 L119.793025,12.1728 L115.431425,14.8032 C115.128225,14.9856 114.755425,14.7144 114.835425,14.3704 L115.989025,9.4088 L112.138625,6.0728 C111.871425,5.8416 112.013825,5.4024 112.366625,5.372 L117.441825,4.936 L119.424225,0.2448 C119.561825,-0.0816 120.023425,-0.0816 120.161025,0.2448 Z" id="Shape-Copy-4" fill="#ECEFFF"></path>
                        </g>
                    </g>
                </g>
            </g>
        </g>
    </g>
</svg>