<svg xmlns="http://www.w3.org/2000/svg" width="30" height="30" viewBox="0 0 30 30">
    <path fill="#7A8099" fill-rule="nonzero" d="M.817 25.242l9.152-9.155 3.944 3.94-9.153 9.157A2.778 2.778 0 0 1 2.79 30a2.787 2.787 0 0 1-1.972-4.758zM23.855 8.134l-4.91 4.91-1.988-1.993 4.905-4.91 2.09-4.028L28.031 0 30 1.968 27.888 6.05l-4.033 2.085zm.897 10.653c2.927.2 5.246 2.61 5.248 5.588 0 .866-.21 1.676-.563 2.411l-3.736-3.737a1.799 1.799 0 0 0-.673-.421 1.844 1.844 0 0 0-.653-.128 1.87 1.87 0 0 0-1.751 2.527c.094.244.23.479.425.674l3.737 3.736a5.507 5.507 0 0 1-2.411.563c-2.977 0-5.39-2.318-5.586-5.246l-.039-.379c0-.686.14-1.337.362-1.944L7.569 10.886a5.622 5.622 0 0 1-1.944.364l-.379-.038C2.32 11.014 0 8.602 0 5.625c0-.866.212-1.678.563-2.411l3.736 3.735c.197.198.43.33.675.423.21.08.43.128.651.128.48 0 .96-.184 1.326-.55a1.872 1.872 0 0 0 .421-1.976 1.834 1.834 0 0 0-.421-.675L3.214.563A5.566 5.566 0 0 1 5.625 0c2.977 0 5.389 2.32 5.587 5.246l.038.379a5.58 5.58 0 0 1-.366 1.944L22.43 19.116a5.58 5.58 0 0 1 1.944-.366l.379.037z"/>
</svg>
