<svg xmlns="http://www.w3.org/2000/svg" width="32" height="32" viewBox="0 0 32 32">
    <g fill="#28315A" fill-rule="nonzero" opacity=".619">
        <path d="M18.574 25H2.426C1.086 25 0 26.112 0 27.484V32h21v-4.516C21 26.112 19.913 25 18.574 25zM31.57 25.496L17.012 10.934l2.812-2.807a1.186 1.186 0 0 0 1.615-.05 1.186 1.186 0 0 0 0-1.67L15.376.347a1.17 1.17 0 0 0-1.665 0 1.171 1.171 0 0 0 0 1.666l-.05-.05-7.698 7.695.05.055a1.17 1.17 0 0 0-1.665 0 1.171 1.171 0 0 0 0 1.665l6.057 6.064a1.185 1.185 0 0 0 1.67 0 1.186 1.186 0 0 0 0-1.67l.05.05 2.812-2.808L29.491 27.57a1.471 1.471 0 0 0 2.079 0 1.466 1.466 0 0 0 0-2.074z"/>
    </g>
</svg>
