<?xml version="1.0" encoding="UTF-8"?>
<svg width="18px" height="28px" viewBox="0 0 18 28" version="1.1" xmlns="http://www.w3.org/2000/svg" xmlns:xlink="http://www.w3.org/1999/xlink">
    <!-- Generator: Sketch 49.3 (51167) - http://www.bohemiancoding.com/sketch -->
    <title>Shape</title>
    <desc>Created with Sketch.</desc>
    <defs></defs>
    <g id="ready" stroke="none" stroke-width="1" fill="none" fill-rule="evenodd">
        <g id="topperevod" transform="translate(-1213.000000, -728.000000)" fill="#7A8099" fill-rule="nonzero">
            <path d="M1229.0694,742.455285 C1228.23657,741.810317 1226.98736,741.279114 1225.32177,740.861789 L1224.01577,740.577236 L1224.01577,735.056911 C1224.05365,735.09487 1224.09146,735.113821 1224.12934,735.113821 C1224.16721,735.113821 1224.18612,735.132772 1224.18612,735.170732 C1225.28395,735.701878 1225.87074,736.612447 1225.94637,737.902439 L1230.31861,737.902439 C1230.24292,735.626016 1229.39119,733.88074 1227.76341,732.666667 C1226.70345,731.869919 1225.45424,731.338772 1224.01577,731.073171 L1224.01577,728 L1219.98423,728 L1219.98423,730.95935 C1218.0915,731.186992 1216.5962,731.794057 1215.49842,732.780488 C1214.05996,734.07048 1213.34069,735.701935 1213.34069,737.674797 C1213.34069,739.799439 1214.07886,741.373984 1215.55521,742.398374 C1216.35016,742.96748 1217.8265,743.498626 1219.98423,743.99187 L1219.98423,749.910569 C1219.18927,749.682927 1218.58358,749.322512 1218.16719,748.829268 C1217.71293,748.298122 1217.42902,747.577236 1217.31546,746.666667 L1213,746.666667 C1213,748.90513 1213.81386,750.669358 1215.44164,751.95935 C1216.61516,752.869919 1218.12932,753.457976 1219.98423,753.723577 L1219.98423,756 L1224.01577,756 L1224.01577,753.780488 C1225.98425,753.514886 1227.55519,752.88887 1228.72871,751.902439 C1230.24292,750.574545 1231,748.90513 1231,746.894309 C1231,744.95935 1230.35649,743.479675 1229.0694,742.455285 Z M1219.98423,739.609756 C1219.34071,739.420073 1218.88645,739.249341 1218.62145,739.097561 C1217.90219,738.718138 1217.54259,738.130081 1217.54259,737.333333 C1217.54259,736.460724 1217.90219,735.796748 1218.62145,735.341463 C1219.00002,735.113821 1219.45428,734.924138 1219.98423,734.772358 L1219.98423,739.609756 Z M1224.69716,749.796748 C1224.50791,749.87261 1224.28078,749.92952 1224.01577,749.96748 L1224.01577,744.902439 C1224.73503,745.130081 1225.28389,745.357724 1225.66246,745.585366 C1226.30597,746.002691 1226.62776,746.571797 1226.62776,747.292683 C1226.62776,748.506756 1225.98425,749.341463 1224.69716,749.796748 Z" id="Shape"></path>
        </g>
    </g>
</svg>