<svg xmlns="http://www.w3.org/2000/svg" width="40" height="40" viewBox="0 0 40 40">
    <g fill="none" fill-rule="nonzero">
        <rect width="39.976" height="39.976" fill="#7D3DAF" rx="19.988"/>
        <g fill="#FFF">
            <path d="M32.631 12.886l-.008-.032c-.638-2.581-3.517-5.351-6.161-5.928l-.03-.006a34.239 34.239 0 0 0-12.888 0l-.03.006c-2.643.577-5.522 3.347-6.162 5.928l-.007.032a25.225 25.225 0 0 0 0 10.867l.007.031c.612 2.472 3.277 5.115 5.822 5.841v2.882c0 1.043 1.271 1.555 1.994.803l2.92-3.035a34.01 34.01 0 0 0 1.9.055 34.35 34.35 0 0 0 6.444-.611l.03-.007c2.644-.576 5.523-3.346 6.161-5.928l.008-.031c.79-3.606.79-7.262 0-10.867zm-2.31 10.344c-.427 1.684-2.613 3.778-4.35 4.165a31.914 31.914 0 0 1-6.854.554.162.162 0 0 0-.121.049l-2.132 2.188-2.268 2.327a.265.265 0 0 1-.457-.183v-4.774a.165.165 0 0 0-.134-.161h-.001c-1.737-.387-3.922-2.481-4.35-4.165a22.891 22.891 0 0 1 0-9.821c.428-1.684 2.613-3.778 4.35-4.165a31.889 31.889 0 0 1 11.968 0c1.737.387 3.922 2.48 4.349 4.165a22.867 22.867 0 0 1 0 9.82z"/>
            <path d="M23.766 25.434c-.267-.082-.521-.136-.757-.234-2.45-1.016-4.703-2.327-6.488-4.336-1.015-1.143-1.81-2.432-2.481-3.798-.319-.647-.587-1.32-.861-1.988-.25-.61.118-1.24.505-1.698.363-.431.83-.761 1.336-1.004.395-.19.785-.08 1.073.254.624.724 1.196 1.485 1.66 2.324.285.515.207 1.146-.31 1.497-.125.086-.24.186-.357.282-.103.085-.2.17-.27.284a.778.778 0 0 0-.051.684c.637 1.752 1.711 3.114 3.474 3.847.282.118.566.254.89.216.545-.063.721-.66 1.103-.972.372-.305.849-.309 1.25-.055.402.254.791.527 1.178.803.38.27.759.536 1.109.844.337.297.453.686.263 1.089-.347.738-.853 1.351-1.582 1.743-.206.11-.451.146-.684.218-.267-.082.233-.072 0 0zM19.995 11.533c3.203.09 5.834 2.215 6.398 5.382.096.54.13 1.09.173 1.639.018.23-.113.449-.362.452-.256.003-.372-.212-.388-.442-.033-.456-.056-.914-.12-1.366-.33-2.386-2.233-4.36-4.608-4.784-.358-.063-.724-.08-1.086-.118-.228-.024-.528-.038-.579-.322-.042-.239.159-.429.386-.441.062-.004.124 0 .186 0 3.203.09-.062 0 0 0z"/>
            <path d="M24.863 17.843c-.006.04-.008.134-.032.222-.085.322-.572.362-.685.038a.968.968 0 0 1-.038-.31c-.001-.678-.149-1.356-.49-1.946a3.622 3.622 0 0 0-1.52-1.426 4.37 4.37 0 0 0-1.21-.371c-.183-.03-.368-.049-.551-.074-.222-.031-.341-.173-.33-.392.01-.205.16-.353.383-.34.735.042 1.445.2 2.099.547 1.328.703 2.088 1.814 2.31 3.298.01.067.025.133.03.2.013.167.02.334.034.554-.006.04-.013-.22 0 0z"/>
            <path d="M22.87 17.765c-.268.005-.411-.143-.439-.389-.019-.171-.034-.345-.075-.512a1.44 1.44 0 0 0-.531-.833 1.387 1.387 0 0 0-.433-.21c-.196-.056-.4-.04-.597-.088-.213-.052-.33-.225-.297-.425a.385.385 0 0 1 .406-.31c1.242.09 2.13.733 2.256 2.194.009.104.02.213-.003.311-.04.17-.165.254-.287.262-.268.005.122-.008 0 0z"/>
        </g>
    </g>
</svg>
