<svg xmlns="http://www.w3.org/2000/svg" width="40" height="40" viewBox="0 0 40 40">
    <g fill="none" fill-rule="nonzero">
        <path fill="#2CB742" d="M0 40l3.44-10.32A19.551 19.551 0 0 1 .69 19.656C.69 8.8 9.49 0 20.345 0S40 8.8 40 19.655 31.2 39.31 20.345 39.31c-3.303 0-6.413-.818-9.145-2.257L0 40z"/>
        <path fill="#FFF" d="M32.885 26.197c-.908-1.716-4.255-3.677-4.255-3.677-.757-.432-1.67-.48-2.102.29 0 0-1.088 1.304-1.365 1.491-1.263.856-2.433.823-3.615-.358l-2.745-2.746-2.746-2.745c-1.181-1.182-1.214-2.352-.358-3.615.187-.277 1.491-1.365 1.491-1.365.77-.432.722-1.345.29-2.102 0 0-1.961-3.347-3.677-4.255a1.88 1.88 0 0 0-2.209.333L10.382 8.66c-3.846 3.846-1.952 8.188 1.894 12.034l3.515 3.516 3.515 3.515c3.846 3.846 8.188 5.74 12.035 1.894l1.212-1.213c.584-.585.718-1.48.332-2.21z"/>
    </g>
</svg>
